<?xml version="1.0" encoding="utf-8"?>
<!-- Svg Vector Icons : http://www.onlinewebfonts.com/icon -->
<!DOCTYPE svg PUBLIC "-//W3C//DTD SVG 1.1//EN" "http://www.w3.org/Graphics/SVG/1.1/DTD/svg11.dtd">
<svg version="1.1" xmlns="http://www.w3.org/2000/svg" xmlns:xlink="http://www.w3.org/1999/xlink" x="0px" y="0px" viewBox="0 0 1000 1000" enable-background="new 0 0 1000 1000" xml:space="preserve">
<metadata> Svg Vector Icons : http://www.onlinewebfonts.com/icon </metadata>
<g><g transform="translate(0.000000,512.000000) scale(0.100000,-0.100000)"><path d="M4525.3,5006c-952.3-95.8-1872-473.3-2605.9-1065.4c-249.1-201.2-651.5-615.1-835.4-858.4c-513.5-684.1-831.6-1467.7-960-2356.8C87.7,464.9,93.4-274.7,135.6-548.7c134.1-871.8,438.8-1605.7,956.1-2297.4c176.3-237.6,697.5-758.8,935.1-935.1c839.2-626.6,1770.5-958,2805.2-994.4c1120.9-42.2,2209.2,302.7,3129,992.5c233.8,174.4,653.4,582.5,843.1,818.2c709,881.4,1094.1,1971.6,1096,3096.4c0,1099.8-398.5,2220.8-1101.7,3084.9c-187.8,231.8-609.3,640-837.3,810.5c-674.5,505.8-1431.3,822-2276.3,952.3C5445.1,5015.6,4770.6,5032.9,4525.3,5006z M5416.3,4699.5c732-65.1,1473.5-323.8,2079-722.4c312.3-205,496.3-354.5,749.2-605.5C8968.8,2645.4,9413.3,1742.9,9557,696.7c15.4-101.6,26.8-354.5,26.8-574.8c0-569.1-63.2-958-241.4-1485c-224.2-664.9-586.3-1249.3-1090.3-1755.1c-720.4-724.3-1611.4-1166.9-2672.9-1322.1c-226.1-34.5-942.7-34.5-1168.8,0c-728.1,107.3-1356.6,339.1-1916.1,707c-321.9,210.8-500.1,356.4-766.4,624.7C559-1932.2,122.2-230.7,572.4,1376.9c389,1389.2,1446.7,2540.7,2801.3,3046.6c404.3,153.3,797.1,239.5,1276.1,285.5C4808.9,4722.5,5213.2,4718.6,5416.3,4699.5z"/><path d="M2862.2,1313.7c-24.9-26.8-32.6-70.9-32.6-191.6V965h-314.2c-268.3,0-318.1-3.8-339.2-32.6c-17.2-19.2-28.7-95.8-32.6-220.4l-7.7-187.8h-166.7c-237.6,0-231.9,11.5-231.9-406.2c0-410-7.7-398.5,233.8-398.5H2136l7.7-187.8c3.8-124.5,15.3-201.2,32.6-220.4c21.1-28.7,70.9-32.6,339.2-32.6h314.2v-161c0-126.5,7.7-166.7,32.6-185.9c23-21.1,122.6-26.8,446.5-26.8s423.5,5.7,446.4,26.8c28.7,23,32.6,76.7,32.6,406.2v381.3h1207.1h1207.1v-381.3c0-331.5,3.8-383.2,32.6-406.2c42.2-36.4,854.6-38.3,889.1-3.8c17.2,17.2,23,78.5,21.1,187.8l-3.8,162.9h323.8c262.5,0,327.6,5.8,346.8,28.7c15.3,19.2,23,92,21.1,220.4l-3.8,191.6h180.1c251,0,243.3-13.4,243.3,406.2c0,408.1,7.7,394.7-239.5,402.4l-172.5,5.7l-5.7,189.7c-1.9,105.4-15.3,203.1-26.8,216.5c-15.3,19.2-99.6,24.9-333.4,24.9c-360.2,0-329.6-21.1-337.2,218.4l-5.8,134.1l-65.1,15.3c-105.4,28.7-795.2,11.5-831.6-21.1c-28.7-23-32.6-76.7-32.6-406.2V524.3H4994.8H3787.7v381.3c0,329.6-3.8,383.2-32.6,406.2c-23,21.1-128.4,28.7-444.5,32.6C2923.5,1350.1,2892.8,1348.2,2862.2,1313.7z"/></g></g>
</svg>